#!OML:ASF G:\JayActor3\Patient Classification 1\Patient 1\Session 6\male.ASF
:FULLY-SPECIFIED
:DEGREES
291
root 44.1308 15.7161 -17.0925 173.49 -73.8412 -172.116
lowerback -0.296276 0.400206 1.19409
upperback 3.72177 0.477706 -0.965278
thorax 4.01504 0.270385 -1.64747
lowerneck -4.1315 9.40665 10.4422
upperneck 12.1336 12.7396 -8.56518
head 5.5568 6.17821 -3.47466
rclavicle 1.63997e-014 -3.26007e-014
rhumerus -32.1279 -9.43082 -84.4048
rradius 31.7195
rwrist 0.952478
rhand -17.1697 -6.82283
rfingers 7.12502
rthumb 9.07161 -36.6078
lclavicle 1.63997e-014 -3.26007e-014
lhumerus -26.6703 8.17708 83.7985
lradius 23.0209
lwrist 14.5938
lhand -16.5886 11.3058
lfingers 7.12502
lthumb 9.63232 41.0656
rfemur -27.0335 -0.922254 18.1287
rtibia 60.6684
rfoot -20.9956 -15.614
rtoes -13.7541
lfemur -3.77121 14.5767 -22.3919
ltibia 23.2986
lfoot -23.2711 4.9197
ltoes 4.2595
292
root 44.0982 15.7156 -17.0616 173.624 -73.983 -172.284
lowerback -0.239103 0.361329 1.12453
upperback 3.76582 0.427857 -1.02448
thorax 4.02642 0.243783 -1.67175
lowerneck -4.12638 9.41859 10.4429
upperneck 12.0769 12.7604 -8.61683
head 5.54373 6.18631 -3.48978
rclavicle -3.47873e-015 -3.97569e-015
rhumerus -32.1995 -9.34019 -84.5309
rradius 31.8255
rwrist 0.872844
rhand -17.136 -6.85213
rfingers 7.12502
rthumb 9.10409 -36.6356
lclavicle -3.47873e-015 -3.97569e-015
lhumerus -26.5309 8.14331 83.7716
lradius 23.0564
lwrist 14.5458
lhand -16.6083 11.3143
lfingers 7.12502
lthumb 9.61326 41.075
rfemur -27.8163 -0.942755 18.1527
rtibia 61.6823
rfoot -21.2631 -16.3301
rtoes -13.1403
lfemur -3.42611 14.7133 -22.5416
ltibia 22.8823
lfoot -23.1781 4.56585
ltoes 4.4966
293
root 44.0638 15.7155 -17.0313 173.623 -74.1811 -172.328
lowerback -0.174956 0.307065 1.08377
upperback 3.813 0.356333 -1.07269
thorax 4.03648 0.207127 -1.70162
lowerneck -4.12565 9.4265 10.4485
upperneck 12.0234 12.7759 -8.67428
head 5.5326 6.19156 -3.50769
rclavicle 1.42131e-014 2.3059e-014
rhumerus -32.2791 -9.263 -84.6437
rradius 31.9053
rwrist 0.819631
rhand -17.1184 -6.84223
rfingers 7.12502
rthumb 9.12114 -36.625
lclavicle 1.42131e-014 2.3059e-014
lhumerus -26.3867 8.12399 83.7473
lradius 23.0762
lwrist 14.4847
lhand -16.6414 11.3271
lfingers 7.12502
lthumb 9.58132 41.0892
rfemur -28.5238 -0.988007 18.2404
rtibia 62.5648
rfoot -21.661 -16.9766
rtoes -12.5609
lfemur -3.05703 14.7713 -22.6595
ltibia 22.4642
lfoot -23.085 4.2369
ltoes 4.72617
294
root 44.0275 15.716 -17.0016 173.487 -74.4287 -172.247
lowerback -0.104908 0.237969 1.06881
upperback 3.86335 0.263955 -1.10847
thorax 4.04577 0.160726 -1.73385
lowerneck -4.12526 9.43168 10.455
upperneck 11.9727 12.788 -8.73374
head 5.52224 6.19503 -3.52665
rclavicle -8.74653e-015 1.82882e-014
rhumerus -32.3628 -9.19425 -84.744
rradius 31.9559
rwrist 0.790046
rhand -17.1032 -6.83058
rfingers 7.12502
rthumb 9.13575 -36.6127
lclavicle -8.74653e-015 1.82882e-014
lhumerus -26.2408 8.11485 83.7282
lradius 23.082
lwrist 14.4117
lhand -16.6762 11.3215
lfingers 7.12502
lthumb 9.54772 41.0852
rfemur -29.1597 -1.05299 18.3901
rtibia 63.3138
rfoot -22.1197 -17.5673
rtoes -11.9927
lfemur -2.6642 14.7455 -22.7479
ltibia 22.0458
lfoot -22.9951 3.94703
ltoes 4.94137
295
root 43.9893 15.717 -16.9724 173.204 -74.7188 -172.025
lowerback -0.03117 0.157802 1.08142
upperback 3.91719 0.155691 -1.12976
thorax 4.05602 0.107117 -1.76706
lowerneck -4.13348 9.43326 10.4574
upperneck 11.9278 12.7945 -8.78889
head 5.51408 6.19561 -3.54369
rclavicle -7.85199e-014 -6.36111e-015
rhumerus -32.4434 -9.1448 -84.8236
rradius 31.9661
rwrist 0.793027
rhand -17.1074 -6.79706
rfingers 7.12502
rthumb 9.1317 -36.5794
lclavicle -7.85199e-014 -6.36111e-015
lhumerus -26.0851 8.1059 83.7229
lradius 23.0689
lwrist 14.3336
lhand -16.7203 11.3218
lfingers 7.12502
lthumb 9.50523 41.0874
rfemur -29.7297 -1.13205 18.6014
rtibia 63.9315
rfoot -22.5994 -18.093
rtoes -11.3693
lfemur -2.25321 14.6369 -22.8052
ltibia 21.6336
lfoot -22.9135 3.69958
ltoes 5.15114
296
root 43.9496 15.7181 -16.9439 172.791 -75.0354 -171.677
lowerback 0.039402 0.0728871 1.11393
upperback 3.97451 0.040214 -1.13737
thorax 4.0713 0.0504305 -1.79744
lowerneck -4.14609 9.4294 10.4537
upperneck 11.8891 12.793 -8.83556
head 5.50678 6.1923 -3.55766
rclavicle -1.95803e-014 -1.98785e-014
rhumerus -32.5241 -9.11208 -84.8836
rradius 31.9448
rwrist 0.815705
rhand -17.1314 -6.76994
rfingers 7.12502
rthumb 9.10857 -36.5533
lclavicle -1.95803e-014 -1.98785e-014
lhumerus -25.9196 8.11329 83.7287
lradius 23.0332
lwrist 14.2321
lhand -16.7662 11.3155
lfingers 7.12502
lthumb 9.46096 41.0831
rfemur -30.2484 -1.21302 18.8694
rtibia 64.4233
rfoot -23.0461 -18.5764
rtoes -10.8555
lfemur -1.83423 14.4612 -22.8373
ltibia 21.2355
lfoot -22.8438 3.49746
ltoes 5.34483
